<svg xmlns="http://www.w3.org/2000/svg" width="800" height="800" viewBox="0 0 800 800" font-family="Arial, Helvetica, sans-serif">
<defs><marker id="arw" viewBox="0 0 10 10" refX="9" refY="5" markerWidth="6" markerHeight="6" orient="auto"><path d="M0 0 L10 5 L0 10 z" fill="#64748B"/></marker><marker id="arwS" viewBox="0 0 10 10" refX="9" refY="5" markerWidth="6" markerHeight="6" orient="auto-start-reverse"><path d="M0 0 L10 5 L0 10 z" fill="#64748B"/></marker></defs>
<rect width="800" height="800" fill="#FEFEFE"/>
<text x="400" y="26" text-anchor="middle" font-size="16" font-weight="bold" fill="#0F172A">Security view 2 — Self-hosted server: request path and trust boundary</text>
<rect x="32" y="180" width="170" height="52" rx="3" fill="#FAFAFA" stroke="#64748B" stroke-width="1.5"/>
<text x="117" y="204" text-anchor="middle" font-size="12" font-weight="bold" fill="#1E293B">Author's browser</text>
<text x="117" y="220" text-anchor="middle" font-size="11" fill="#64748B">Editor (SPA)</text>
<rect x="32" y="300" width="170" height="52" rx="3" fill="#E5E7EB" stroke="#64748B" stroke-width="1.5"/>
<text x="117" y="324" text-anchor="middle" font-size="12" font-weight="bold" fill="#1E293B">Identity proxy</text>
<text x="117" y="340" text-anchor="middle" font-size="11" fill="#64748B">Company SSO</text>
<rect x="32" y="470" width="170" height="52" rx="3" fill="#E5E7EB" stroke="#64748B" stroke-width="1.5"/>
<text x="117" y="494" text-anchor="middle" font-size="12" font-weight="bold" fill="#1E293B">Git remote</text>
<text x="117" y="510" text-anchor="middle" font-size="11" fill="#64748B">Company SCM</text>
<rect x="300" y="140" width="480" height="500" rx="3" fill="#FFF1F2" stroke="#E11D48" stroke-width="1.5" stroke-dasharray="6 3"/>
<text x="310" y="157" font-size="12" font-weight="bold" fill="#E11D48">Trust boundary — SpecPad server process</text>
<rect x="330" y="180" width="190" height="52" rx="3" fill="#FAFAFA" stroke="#64748B" stroke-width="1.5"/>
<text x="425" y="204" text-anchor="middle" font-size="12" font-weight="bold" fill="#1E293B">HTTP API</text>
<text x="425" y="220" text-anchor="middle" font-size="11" fill="#64748B">single origin</text>
<rect x="330" y="280" width="190" height="52" rx="3" fill="#FAFAFA" stroke="#64748B" stroke-width="1.5"/>
<text x="425" y="304" text-anchor="middle" font-size="12" font-weight="bold" fill="#1E293B">Identity resolver</text>
<text x="425" y="320" text-anchor="middle" font-size="11" fill="#64748B">trusted peer only</text>
<rect x="330" y="380" width="190" height="52" rx="3" fill="#FAFAFA" stroke="#64748B" stroke-width="1.5"/>
<text x="425" y="404" text-anchor="middle" font-size="12" font-weight="bold" fill="#1E293B">Authorization</text>
<text x="425" y="420" text-anchor="middle" font-size="11" fill="#64748B">role per project</text>
<rect x="330" y="470" width="190" height="52" rx="3" fill="#FAFAFA" stroke="#64748B" stroke-width="1.5"/>
<text x="425" y="494" text-anchor="middle" font-size="12" font-weight="bold" fill="#1E293B">Path + governance gate</text>
<text x="425" y="510" text-anchor="middle" font-size="11" fill="#64748B">allowlist · checkGovernance</text>
<rect x="580" y="180" width="180" height="52" rx="3" fill="#FAFAFA" stroke="#64748B" stroke-width="1.5"/>
<text x="670" y="204" text-anchor="middle" font-size="12" font-weight="bold" fill="#1E293B">Presence stream</text>
<text x="670" y="220" text-anchor="middle" font-size="11" fill="#64748B">per project</text>
<rect x="580" y="280" width="180" height="52" rx="3" fill="#FAFAFA" stroke="#64748B" stroke-width="1.5"/>
<text x="670" y="304" text-anchor="middle" font-size="12" font-weight="bold" fill="#1E293B">Trusted peer list</text>
<text x="670" y="320" text-anchor="middle" font-size="11" fill="#64748B">startup config</text>
<rect x="580" y="380" width="180" height="52" rx="3" fill="#FAFAFA" stroke="#64748B" stroke-width="1.5"/>
<text x="670" y="404" text-anchor="middle" font-size="12" font-weight="bold" fill="#1E293B">Project role map</text>
<text x="670" y="420" text-anchor="middle" font-size="11" fill="#64748B">group → role</text>
<path d="M580 478 a 90 8 0 0 1 180 0 v 36 a 90 8 0 0 1 -180 0 z" fill="#FAFAFA" stroke="#64748B" stroke-width="1.5"/>
<path d="M580 478 a 90 8 0 0 0 180 0" fill="none" stroke="#64748B" stroke-width="1.5"/>
<text x="670" y="504" text-anchor="middle" font-size="12" font-weight="bold" fill="#1E293B">Per-user worktrees</text>
<rect x="330" y="566" width="140" height="52" rx="3" fill="#F5F3FF" stroke="#8B5CF6" stroke-width="1.5"/>
<text x="400" y="590" text-anchor="middle" font-size="12" font-weight="bold" fill="#1E293B">ajv 8.20.0</text>
<text x="400" y="606" text-anchor="middle" font-size="11" fill="#64748B">SOUP-8</text>
<rect x="482" y="566" width="140" height="52" rx="3" fill="#F5F3FF" stroke="#8B5CF6" stroke-width="1.5"/>
<text x="552" y="590" text-anchor="middle" font-size="12" font-weight="bold" fill="#1E293B">git 2.34+</text>
<text x="552" y="606" text-anchor="middle" font-size="11" fill="#64748B">SOUP-10</text>
<rect x="634" y="566" width="140" height="52" rx="3" fill="#F5F3FF" stroke="#8B5CF6" stroke-width="1.5"/>
<text x="704" y="590" text-anchor="middle" font-size="12" font-weight="bold" fill="#1E293B">Node.js 22 LTS</text>
<text x="704" y="606" text-anchor="middle" font-size="11" fill="#64748B">SOUP-11</text>
<rect x="32" y="660" width="736" height="106" rx="2" fill="none" stroke="#64748B" stroke-width="0.5"/>
<text x="42" y="677" font-size="12" font-weight="bold" fill="#1E293B">Legend</text>
<rect x="42" y="688" width="22" height="13" rx="3" fill="#FAFAFA" stroke="#64748B" stroke-width="1.5"/>
<text x="72" y="699" font-size="11" fill="#1E293B">SpecPad-controlled element</text>
<rect x="42" y="708" width="22" height="13" rx="3" fill="#E5E7EB" stroke="#64748B" stroke-width="1.5"/>
<text x="72" y="719" font-size="11" fill="#1E293B">Operator- or third-party-controlled</text>
<rect x="42" y="728" width="22" height="13" rx="3" fill="#F5F3FF" stroke="#8B5CF6" stroke-width="1.5"/>
<text x="72" y="739" font-size="11" fill="#1E293B">Third-party component (SOUP/SBOM)</text>
<rect x="42" y="748" width="22" height="13" rx="3" fill="#FFF1F2" stroke="#E11D48" stroke-width="1.5" stroke-dasharray="6 3"/>
<text x="72" y="759" font-size="11" fill="#1E293B">Trust boundary</text>
<path d="M410 694 L440 694" stroke="#64748B" stroke-width="1.5" marker-end="url(#arw)"/>
<text x="450" y="698" font-size="11" fill="#1E293B">Data flow</text>
<path d="M410 714 L440 714" stroke="#64748B" stroke-width="1.5" stroke-dasharray="4 2" marker-end="url(#arw)"/>
<text x="450" y="718" font-size="11" fill="#1E293B">Control / command flow</text>
<path d="M410 734 L440 734" stroke="#64748B" stroke-width="1.5" stroke-dasharray="2 2" marker-end="url(#arw)"/>
<text x="450" y="738" font-size="11" fill="#1E293B">Optional or advisory flow</text>
<path d="M117 232 L117 300" fill="none" stroke="#64748B" stroke-width="1.5" marker-end="url(#arw)"/>
<rect x="67.2" y="251.0" width="99.5" height="30" fill="#FEFEFE" opacity="0.92"/>
<text x="117.0" y="262.0" text-anchor="middle" font-size="11" fill="#475569">documents (data)</text>
<text x="117.0" y="275.0" text-anchor="middle" font-size="11" fill="#475569">HTTPS 443</text>
<path d="M202 326 L266 326 L266 206 L330 206" fill="none" stroke="#64748B" stroke-width="1.5" marker-end="url(#arw)"/>
<rect x="216.2" y="251.0" width="99.5" height="30" fill="#FEFEFE" opacity="0.92"/>
<text x="266.0" y="262.0" text-anchor="middle" font-size="11" fill="#475569">identity headers</text>
<text x="266.0" y="275.0" text-anchor="middle" font-size="11" fill="#475569">HTTP 8080</text>
<path d="M425 232 L425 280" fill="none" stroke="#64748B" stroke-width="1.5" marker-end="url(#arw)"/>
<rect x="372.4" y="248.0" width="105.2" height="16" fill="#FEFEFE" opacity="0.92"/>
<text x="425.0" y="259.0" text-anchor="middle" font-size="11" fill="#475569">request + headers</text>
<path d="M425 332 L425 380" fill="none" stroke="#64748B" stroke-width="1.5" marker-end="url(#arw)"/>
<rect x="369.5" y="348.0" width="111.0" height="16" fill="#FEFEFE" opacity="0.92"/>
<text x="425.0" y="359.0" text-anchor="middle" font-size="11" fill="#475569">principal + groups</text>
<path d="M425 432 L425 470" fill="none" stroke="#64748B" stroke-width="1.5" marker-end="url(#arw)"/>
<rect x="369.5" y="443.0" width="111.0" height="16" fill="#FEFEFE" opacity="0.92"/>
<text x="425.0" y="454.0" text-anchor="middle" font-size="11" fill="#475569">authorized request</text>
<path d="M520 206 L580 206" fill="none" stroke="#64748B" stroke-width="1.5" stroke-dasharray="2 2" marker-end="url(#arw)"/>
<rect x="528.8" y="198.0" width="42.3" height="16" fill="#FEFEFE" opacity="0.92"/>
<text x="550.0" y="209.0" text-anchor="middle" font-size="11" fill="#475569">events</text>
<path d="M580 306 L520 306" fill="none" stroke="#64748B" stroke-width="1.5" marker-end="url(#arw)"/>
<rect x="526.0" y="298.0" width="48.0" height="16" fill="#FEFEFE" opacity="0.92"/>
<text x="550.0" y="309.0" text-anchor="middle" font-size="11" fill="#475569">peer IP</text>
<path d="M580 406 L520 406" fill="none" stroke="#64748B" stroke-width="1.5" marker-end="url(#arw)"/>
<rect x="531.7" y="398.0" width="36.6" height="16" fill="#FEFEFE" opacity="0.92"/>
<text x="550.0" y="409.0" text-anchor="middle" font-size="11" fill="#475569">roles</text>
<path d="M520 496 L580 496" fill="none" stroke="#64748B" stroke-width="1.5" marker-end="url(#arw)" marker-start="url(#arwS)"/>
<rect x="523.1" y="488.0" width="53.8" height="16" fill="#FEFEFE" opacity="0.92"/>
<text x="550.0" y="499.0" text-anchor="middle" font-size="11" fill="#475569">file I/O</text>
<path d="M330 496 L202 496" fill="none" stroke="#64748B" stroke-width="1.5" marker-end="url(#arw)"/>
<rect x="224.8" y="481.0" width="82.4" height="30" fill="#FEFEFE" opacity="0.92"/>
<text x="266.0" y="492.0" text-anchor="middle" font-size="11" fill="#475569">commits, refs</text>
<text x="266.0" y="505.0" text-anchor="middle" font-size="11" fill="#475569">HTTPS 443</text>
<path d="M377.5 522 L377 544 L400 544 L400 566" fill="none" stroke="#64748B" stroke-width="1.5" stroke-dasharray="4 2" marker-end="url(#arw)"/>
<rect x="367.3" y="536.0" width="42.3" height="16" fill="#FEFEFE" opacity="0.92"/>
<text x="388.5" y="547.0" text-anchor="middle" font-size="11" fill="#475569">schema</text>
<path d="M472.5 522 L472 544 L552 544 L552 566" fill="none" stroke="#64748B" stroke-width="1.5" stroke-dasharray="4 2" marker-end="url(#arw)"/>
<rect x="479.4" y="536.0" width="65.2" height="16" fill="#FEFEFE" opacity="0.92"/>
<text x="512.0" y="547.0" text-anchor="middle" font-size="11" fill="#475569">subprocess</text>
<text x="24" y="788" font-size="12" fill="#64748B">The commit and push path is detailed in view 6.</text>
</svg>
